<?xml version="1.0" encoding="UTF-8"?>
<svg width="14px" height="16px" viewBox="0 0 14 16" version="1.1" xmlns="http://www.w3.org/2000/svg" xmlns:xlink="http://www.w3.org/1999/xlink">
    <!-- Generator: Sketch 43.1 (39012) - http://www.bohemiancoding.com/sketch -->
    <title>icn-up</title>
    <desc>Created with Sketch.</desc>
    <defs></defs>
    <g id="Page-1" stroke="none" stroke-width="1" fill="none" fill-rule="evenodd">
        <g id="icn-up" fill-rule="nonzero" fill="#CCCCCC">
            <path d="M1.70725002,7.77056162 L6.00025002,3.88356166 L6.00025002,14.4785616 C6.00025002,15.0305616 6.44825002,15.4785616 7.00025002,15.4785616 C7.55225002,15.4785616 8.00025002,15.0305616 8.00025002,14.4785616 L8.00025002,3.89356166 L12.28325,7.77056162 C12.67325,8.16056162 13.30625,8.16056162 13.69725,7.77056162 C14.08725,7.37956162 14.08725,6.74656162 13.69725,6.35556162 L7.72825002,0.793561656 C7.53725002,0.601561656 7.28725002,0.515561656 7.03625002,0.512561656 C6.73025002,0.498561656 6.46425002,0.591561656 6.26225002,0.793561656 L0.293250016,6.35556162 C-0.0977499838,6.74656162 -0.0977499838,7.37956162 0.293250016,7.77056162 C0.683250016,8.16056162 1.31725002,8.16056162 1.70725002,7.77056162 Z" id="Imported-Layers-Copy-46"></path>
        </g>
    </g>
</svg>
